<svg width="24" height="24" viewBox="0 0 24 24" fill="none" xmlns="http://www.w3.org/2000/svg">
<path d="M19.0628 4C19.541 4 20 4.38477 20 4.96604V10.1785C20 10.5568 19.704 10.8634 19.339 10.8634H14.315C13.7536 10.8634 13.3819 10.3875 13.3819 9.89162C13.3819 9.65461 13.4667 9.41288 13.6563 9.21639L15.2122 7.60371C14.2391 6.777 13.0105 6.2947 11.7191 6.2947C8.68162 6.2947 6.20892 8.85591 6.20892 12.0038C6.20892 15.1516 8.68024 17.7114 11.7181 17.7114C14.2401 17.7114 14.8022 16.3427 15.687 16.3427C16.3242 16.3427 16.7894 16.88 16.7894 17.4845C16.7894 18.7364 13.976 20 11.7205 20C7.46544 20 4 16.4095 4 12.0009C4 7.59227 7.46648 4.01179 11.7216 4.01179C13.6043 4.01179 15.3835 4.74025 16.7697 5.98602L18.4111 4.28438C18.6007 4.08789 18.8352 4 19.0628 4Z" fill="white"/>
<path d="M9.161 9.96L8.288 10.527L8.126 10.32L9.521 9.06H9.971V15H9.161V9.96ZM13.3702 15.18C11.9302 15.18 11.2102 14.13 11.2102 12.03C11.2102 9.93 11.9302 8.88 13.3702 8.88C14.8102 8.88 15.5302 9.93 15.5302 12.03C15.5302 14.13 14.8102 15.18 13.3702 15.18ZM13.3702 14.82C13.6942 14.82 13.9462 14.721 14.1262 14.523C14.3122 14.325 14.4412 14.025 14.5132 13.623C14.5912 13.215 14.6302 12.684 14.6302 12.03C14.6302 11.376 14.5912 10.848 14.5132 10.446C14.4412 10.038 14.3122 9.735 14.1262 9.537C13.9462 9.339 13.6942 9.24 13.3702 9.24C13.0462 9.24 12.7912 9.339 12.6052 9.537C12.4252 9.735 12.2962 10.038 12.2182 10.446C12.1462 10.848 12.1102 11.376 12.1102 12.03C12.1102 12.684 12.1462 13.215 12.2182 13.623C12.2962 14.025 12.4252 14.325 12.6052 14.523C12.7912 14.721 13.0462 14.82 13.3702 14.82Z" fill="white"/>
</svg>
