<svg id="svg" version="1.1" xmlns="http://www.w3.org/2000/svg" xmlns:xlink="http://www.w3.org/1999/xlink" width="400" height="286.41975308641975" viewBox="0, 0, 400,286.41975308641975"><g id="svgg"><path id="path0" d="M365.759 23.570 C 364.765 23.780,312.647 23.925,195.415 24.043 C 30.135 24.208,26.487 24.224,25.702 24.756 C 24.006 25.905,23.738 27.691,24.806 30.719 C 25.158 31.715,25.215 48.185,25.215 148.020 L 25.215 264.163 26.104 265.176 L 26.993 266.189 194.979 266.189 C 342.123 266.189,363.113 266.241,364.160 266.611 C 367.355 267.738,369.295 267.401,370.459 265.518 L 371.060 264.546 371.072 148.390 C 371.082 55.231,371.157 31.753,371.453 29.799 C 372.196 24.888,370.143 22.641,365.759 23.570 M369.891 26.043 C 370.657 27.118,370.641 27.663,369.771 30.256 L 369.054 32.390 369.054 148.386 C 369.054 263.728,369.051 264.384,368.486 264.896 C 367.943 265.387,367.857 265.388,366.623 264.917 L 365.330 264.423 365.330 148.317 L 365.330 32.211 364.101 31.005 L 362.872 29.799 195.043 29.799 L 27.213 29.799 26.591 28.519 C 25.986 27.274,25.984 27.223,26.496 26.657 L 27.023 26.074 194.868 26.074 C 320.036 26.074,362.919 25.991,363.520 25.747 C 367.239 24.238,368.653 24.304,369.891 26.043 M334.702 59.335 C 336.531 60.637,336.390 53.364,336.390 145.952 L 336.390 230.329 335.639 231.220 C 335.226 231.711,334.524 232.301,334.078 232.532 C 333.369 232.898,316.138 232.951,197.478 232.951 L 61.689 232.951 60.723 232.300 C 60.191 231.941,59.463 231.213,59.104 230.681 L 58.453 229.715 58.453 145.789 C 58.453 72.663,58.507 61.758,58.872 61.051 C 59.103 60.605,59.693 59.902,60.184 59.490 L 61.075 58.739 197.471 58.739 L 333.866 58.739 334.702 59.335 " stroke="none" fill="#f8f8f8" fill-rule="evenodd"></path><path id="path1" d="M366.046 24.924 C 365.100 25.197,363.964 25.567,363.520 25.747 C 362.919 25.991,320.036 26.074,194.868 26.074 L 27.023 26.074 26.496 26.657 C 25.984 27.223,25.986 27.274,26.591 28.519 L 27.213 29.799 195.043 29.799 L 362.872 29.799 364.101 31.005 L 365.330 32.211 365.330 148.317 L 365.330 264.423 366.623 264.917 C 367.857 265.388,367.943 265.387,368.486 264.896 C 369.051 264.384,369.054 263.728,369.054 148.386 L 369.054 32.390 369.771 30.256 C 371.187 26.039,369.676 23.877,366.046 24.924 " stroke="none" fill="#f3f1f1" fill-rule="evenodd"></path></g></svg>